<svg width="513" height="513" viewBox="0 0 513 513" fill="none" xmlns="http://www.w3.org/2000/svg">
<path d="M41.0193 218.575C43.6841 219.794 46.7746 219.794 49.4394 218.331L132.678 175.055C138.006 172.129 140.245 164.815 137.687 158.72C135.236 152.869 129.161 150.186 123.938 152.869L65.6391 183.223C93.4561 88.0149 170.939 24.3806 260.146 24.3806C353.616 24.3806 435.361 95.8172 458.915 198.095C460.407 204.555 466.269 208.457 471.917 206.75C477.566 205.043 480.977 198.338 479.484 191.878C453.478 78.9943 363.313 0 260.145 0C161.773 0 76.1894 70.2171 45.2818 175.299L20.769 105.205C18.9575 98.8651 12.8825 95.3303 7.34009 97.4023C1.79766 99.4743 -1.29279 106.423 0.518715 112.762C0.625627 113.25 0.838452 113.737 1.05128 114.225L35.0503 211.749C36.1164 214.797 38.2476 217.357 41.0193 218.575Z" fill="white"/>
<path d="M511.352 398.506C511.245 398.263 511.139 398.018 511.139 397.775L477.14 300.251C476.074 297.203 473.943 294.643 471.172 293.425C468.507 292.206 465.417 292.328 462.752 293.669L379.513 336.945C374.078 339.505 371.52 346.697 373.758 352.914C375.996 359.131 382.284 362.057 387.72 359.497C387.933 359.375 388.146 359.254 388.359 359.131L446.658 328.777C418.628 423.985 341.038 487.619 251.939 487.619C158.469 487.619 76.723 416.183 53.1694 313.905C51.6776 307.445 45.8155 303.543 40.1671 305.25C34.5188 306.957 31.1076 313.662 32.6004 320.122C58.499 433.128 148.772 512 251.94 512C350.312 512 435.788 441.783 466.803 336.701L491.315 406.795C493.341 413.135 499.416 416.426 504.957 414.11C510.499 411.794 513.376 404.846 511.352 398.506Z" fill="white"/>
</svg>
