<svg width="79" height="82" viewBox="0 0 79 82" fill="none" xmlns="http://www.w3.org/2000/svg">
<path d="M52.788 42.46C50.3613 42.46 48.396 40.4933 48.396 38.0679C48.396 35.6413 50.3613 33.676 52.788 33.676C55.2147 33.676 57.18 35.6413 57.18 38.0679C57.18 40.4933 55.2147 42.46 52.788 42.46ZM37.728 42.46C35.3013 42.46 33.3347 40.4933 33.3347 38.0679C33.3347 35.6413 35.3013 33.676 37.728 33.676C40.1547 33.676 42.12 35.6413 42.12 38.0679C42.12 40.4933 40.1547 42.46 37.728 42.46ZM22.668 42.46C20.2413 42.46 18.2746 40.4933 18.2746 38.0679C18.2746 35.6413 20.2413 33.676 22.668 33.676C25.0933 33.676 27.06 35.6413 27.06 38.0679C27.06 40.4933 25.0933 42.46 22.668 42.46ZM77.264 38.132C77.264 17.0706 60.1907 -5.20883e-05 39.1293 -5.20883e-05C18.072 -5.20883e-05 1 17.0706 1 38.132C1 59.1906 18.072 76.2626 39.1293 76.2626C45.7 76.2626 51.8813 74.6013 57.276 71.6773C63.292 75.1386 74.6213 81.8373 74.6213 81.8373L70.1227 60.3359C74.612 54.0786 77.264 46.4186 77.264 38.132" fill="black"/>
<path d="M29.4353 36.56H35.3553V47.92C33.8353 49.0667 32.0753 49.9467 30.0753 50.56C28.0753 51.1733 26.062 51.48 24.0353 51.48C21.1286 51.48 18.5153 50.8667 16.1953 49.64C13.8753 48.3867 12.0486 46.6667 10.7153 44.48C9.40865 42.2667 8.75531 39.7733 8.75531 37C8.75531 34.2267 9.40865 31.7467 10.7153 29.56C12.0486 27.3467 13.8886 25.6267 16.2353 24.4C18.582 23.1467 21.222 22.52 24.1553 22.52C26.6086 22.52 28.8353 22.9333 30.8353 23.76C32.8353 24.5867 34.5153 25.7867 35.8753 27.36L31.7153 31.2C29.7153 29.0933 27.302 28.04 24.4753 28.04C22.6886 28.04 21.102 28.4133 19.7153 29.16C18.3286 29.9067 17.2486 30.96 16.4753 32.32C15.702 33.68 15.3153 35.24 15.3153 37C15.3153 38.7333 15.702 40.28 16.4753 41.64C17.2486 43 18.3153 44.0667 19.6753 44.84C21.062 45.5867 22.6353 45.96 24.3953 45.96C26.262 45.96 27.942 45.56 29.4353 44.76V36.56ZM54.9347 51.48C52.028 51.48 49.4014 50.8533 47.0547 49.6C44.7347 48.3467 42.908 46.6267 41.5747 44.44C40.268 42.2267 39.6147 39.7467 39.6147 37C39.6147 34.2533 40.268 31.7867 41.5747 29.6C42.908 27.3867 44.7347 25.6533 47.0547 24.4C49.4014 23.1467 52.028 22.52 54.9347 22.52C57.8414 22.52 60.4547 23.1467 62.7747 24.4C65.0947 25.6533 66.9214 27.3867 68.2547 29.6C69.588 31.7867 70.2547 34.2533 70.2547 37C70.2547 39.7467 69.588 42.2267 68.2547 44.44C66.9214 46.6267 65.0947 48.3467 62.7747 49.6C60.4547 50.8533 57.8414 51.48 54.9347 51.48ZM54.9347 45.96C56.588 45.96 58.0814 45.5867 59.4147 44.84C60.748 44.0667 61.788 43 62.5347 41.64C63.308 40.28 63.6947 38.7333 63.6947 37C63.6947 35.2667 63.308 33.72 62.5347 32.36C61.788 31 60.748 29.9467 59.4147 29.2C58.0814 28.4267 56.588 28.04 54.9347 28.04C53.2814 28.04 51.788 28.4267 50.4547 29.2C49.1214 29.9467 48.068 31 47.2947 32.36C46.548 33.72 46.1747 35.2667 46.1747 37C46.1747 38.7333 46.548 40.28 47.2947 41.64C48.068 43 49.1214 44.0667 50.4547 44.84C51.788 45.5867 53.2814 45.96 54.9347 45.96Z" fill="white"/>
</svg>
