<svg width="512" height="512" viewBox="0 0 512 512" fill="none" xmlns="http://www.w3.org/2000/svg">
<path d="M481.507 210.225L68.4134 38.8155C51.0104 31.5935 31.3494 34.7705 17.1044 47.1025C2.85942 59.4365 -3.09858 78.4405 1.55742 96.6975L38.3264 240.889L138.5 247C146.784 247 233.353 247.605 233.353 255.89C233.353 264.174 146.785 265.5 138.5 265.5L38.3264 270.891L1.55742 415.082C-3.09858 433.34 2.85842 452.344 17.1044 464.677C31.3784 477.034 51.0414 480.173 68.4144 472.965L481.508 301.555C500.316 293.751 511.999 276.253 511.999 255.89C511.999 235.527 500.316 218.028 481.507 210.225Z" fill="#54D38A"/>
</svg>
