<svg width="512" height="512" viewBox="0 0 512 512" fill="none" xmlns="http://www.w3.org/2000/svg">
<path d="M501.362 383.95L320.497 51.474C291.438 2.55301 220.601 2.48801 191.503 51.474L10.647 383.95C-19.059 433.939 16.906 497.241 75.129 497.241H436.865C495.039 497.241 531.068 433.99 501.362 383.95ZM256 437.241C239.462 437.241 226 423.779 226 407.241C226 390.703 239.462 377.241 256 377.241C272.538 377.241 286 390.703 286 407.241C286 423.779 272.538 437.241 256 437.241ZM286 317.241C286 333.779 272.538 347.241 256 347.241C239.462 347.241 226 333.779 226 317.241V167.241C226 150.703 239.462 137.241 256 137.241C272.538 137.241 286 150.703 286 167.241V317.241Z" fill="#FF2525"/>
</svg>
